<svg xmlns="http://www.w3.org/2000/svg" width="520" height="160" aria-labelledby="title desc" viewBox="0 0 520 160">
  <title>MaTE logo</title>
  <desc>
    A glassy table icon followed by the MaTE wordmark, with Ma and TE separated for independent coloring.
  </desc>
  <defs>
    <linearGradient id="a" x1="0" x2="1" y1="0" y2="1">
      <stop offset="0" stop-color="#38bdf8"/>
      <stop offset=".45" stop-color="#0ea5e9"/>
      <stop offset="1" stop-color="#1d4ed8"/>
    </linearGradient>
    <linearGradient id="b" x1="0" x2="0" y1="0" y2="1">
      <stop offset="0" stop-color="#fff" stop-opacity=".42"/>
      <stop offset=".55" stop-color="#fff" stop-opacity=".1"/>
      <stop offset="1" stop-color="#fff" stop-opacity="0"/>
    </linearGradient>
    <linearGradient id="c" x1="0" x2="0" y1="0" y2="1">
      <stop offset="0" stop-color="#fff" stop-opacity=".95"/>
      <stop offset="1" stop-color="#e0f2fe" stop-opacity=".82"/>
    </linearGradient>
    <linearGradient id="e" x1="0" x2="0" y1="0" y2="1">
      <stop offset="0" stop-color="#e0f2fe" stop-opacity=".92"/>
      <stop offset="1" stop-color="#bae6fd" stop-opacity=".72"/>
    </linearGradient>
    <linearGradient id="f" x1="0" x2="0" y1="0" y2="1">
      <stop offset="0" stop-color="#cffafe" stop-opacity=".88"/>
      <stop offset="1" stop-color="#7dd3fc" stop-opacity=".68"/>
    </linearGradient>
    <filter id="d" width="140%" height="150%" x="-20%" y="-20%">
      <feDropShadow dx="0" dy="2" flood-color="#0f172a" flood-opacity=".18" stdDeviation="2"/>
    </filter>
  </defs>
  <g transform="translate(0,5)">
    <rect width="160" height="150" fill="url(#a)" rx="32" ry="32"/>
    <path fill="url(#b)" d="M32 0h96c17.7 0 32 14.3 32 32v32c-42-15-82-9-120-22C22 36 9 25 0 12v20C0 14.3 14.3 0 32 0"/>
    <rect width="156" height="146" x="2" y="2" fill="none" stroke="#fff" stroke-opacity=".22" stroke-width="2" rx="30" ry="30"/>
  </g>
  <rect width="30" height="25" x="23" y="30.5" fill="url(#c)" stroke="#fff" stroke-opacity=".35" filter="url(#d)" rx="5.25" ry="5.25"/>
  <rect width="30" height="25" x="65" y="30.5" fill="url(#e)" stroke="#fff" stroke-opacity=".28" filter="url(#d)" rx="5.25" ry="5.25"/>
  <rect width="30" height="25" x="107" y="30.5" fill="url(#c)" stroke="#fff" stroke-opacity=".35" filter="url(#d)" rx="5.25" ry="5.25"/>
  <rect width="30" height="25" x="23" y="68" fill="url(#e)" stroke="#fff" stroke-opacity=".28" filter="url(#d)" rx="5.25" ry="5.25"/>
  <rect width="30" height="25" x="65" y="68" fill="url(#c)" stroke="#fff" stroke-opacity=".35" filter="url(#d)" rx="5.25" ry="5.25"/>
  <rect width="30" height="25" x="107" y="68" fill="url(#e)" stroke="#fff" stroke-opacity=".28" filter="url(#d)" rx="5.25" ry="5.25"/>
  <rect width="30" height="25" x="23" y="104.5" fill="url(#f)" stroke="#fff" stroke-opacity=".25" filter="url(#d)" rx="5.25" ry="5.25"/>
  <rect width="30" height="25" x="65" y="104.5" fill="url(#f)" stroke="#fff" stroke-opacity=".25" filter="url(#d)" rx="5.25" ry="5.25"/>
  <rect width="30" height="25" x="107" y="104.5" fill="url(#f)" stroke="#fff" stroke-opacity=".25" filter="url(#d)" rx="5.25" ry="5.25"/>
  <text x="180" y="100" dominant-baseline="middle" font-family="Tw Cen MT" font-size="130" font-weight="600">
    <tspan fill="#1f273a">Ma</tspan><tspan fill="#186dde" dx="-8"  letter-spacing="-2.8">TE</tspan>
  </text>
</svg>